<svg width="100" height="100" viewBox="0 0 100 100" fill="none" xmlns="http://www.w3.org/2000/svg">
<path fill-rule="evenodd" clip-rule="evenodd" d="M55.5255 100C77.7574 97.8027 95.746 81.2466 100 59.7798L89.8503 49.6763L99.8902 39.6821C95.4445 18.4771 77.5713 2.17887 55.5255 0V100ZM45.4299 5.71628e-06C28.2976 1.69328 13.6852 11.9136 5.93622 26.3372L22.9993 43.3225L30.1379 50.4288L22.9993 57.5349L6.23933 74.2186C14.0623 88.3485 28.5184 98.3286 45.4299 100V5.71628e-06ZM2.03985 64.1866L15.8606 50.4287L1.84818 36.4801C0.643821 40.7817 0 45.316 0 50C0 54.9266 0.712254 59.6877 2.03985 64.1866ZM73.6973 40.9553C78.7154 40.9553 82.7833 36.9058 82.7833 31.9106C82.7833 26.9154 78.7154 22.866 73.6973 22.866C68.6793 22.866 64.6113 26.9154 64.6113 31.9106C64.6113 36.9058 68.6793 40.9553 73.6973 40.9553Z" fill="white"/>
</svg>
